# AST/ASF file generated using VICON BodyLanguage
# -----------------------------------------------
:version 1.10
:name VICON
:units
  mass 1.0
  length 0.45
  angle deg
:documentation
   .ast/.asf automatically generated from VICON data using
   VICON BodyBuilder and BodyLanguage model FoxedUp or BRILLIANT.MOD
:root
   order TX TY TZ RX RY RZ
   axis XYZ
   position 0 0 0  
   orientation 0 0 0 
:bonedata
  begin
     id 1 
     name lhipjoint
     direction 0.650112 -0.723553 0.232005 
     length 2.45805 
     axis 0 0 0  XYZ
  end
  begin
     id 2 
     name lfemur
     direction 0.34202 -0.939693 0  
     length 7.00073  
     axis 0 0 20  XYZ
    dof rx ry rz
    limits (-160.0 20.0)
           (-70.0 70.0)
           (-60.0 70.0)
  end
  begin
     id 3 
     name ltibia
     direction 0.34202 -0.939693 0   
     length 7.8748   
     axis 0 0 20   XYZ
    dof rx
    limits (-10.0 170.0)
  end
  begin
     id 4 
     name lfoot
     direction 0.0542825 -0.14914 0.987325   
     length 1.75978   
     axis -90 7.62852e-016 20   XYZ
    dof rx rz
    limits (-45.0 90.0)
           (-70.0 20.0)
  end
  begin
     id 5 
     name ltoes
     direction 1.53509e-011 -4.21906e-011 1   
     length 0.893912   
     axis -90 7.62852e-016 20   XYZ
    dof rx
    limits (-90.0 20.0)
  end
  begin
     id 6 
     name rhipjoint
     direction -0.637897 -0.733345 0.235145   
     length 2.42522  
     axis 0 0 0  XYZ 
  end
  begin
     id 7 
     name rfemur
     direction -0.34202 -0.939693 0   
     length 7.02549   
     axis 0 0 -20   XYZ
    dof rx ry rz
    limits (-160.0 20.0)
           (-70.0 70.0)
           (-70.0 60.0)
  end
  begin
     id 8 
     name rtibia
     direction -0.34202 -0.939693 0   
     length 7.71512   
     axis 0 0 -20   XYZ
    dof rx
    limits (-10.0 170.0)
 end
 begin
     id 9 
     name rfoot
     direction -0.0822618 -0.226012 0.970645   
     length 1.90014  
     axis -90 -7.62852e-016 -20   XYZ
    dof rx rz
    limits (-45.0 90.0)
           (-20.0 70.0)
  end
  begin
     id 10 
     name rtoes
     direction -1.53542e-011 -4.21872e-011 1   
     length 0.957341   
     axis -90 -7.62852e-016 -20   XYZ
    dof rx
    limits (-90.0 20.0)
  end
  begin
     id 11 
     name lowerback
     direction -0.0022947 0.999774 -0.0211557   
     length 1.89909   
     axis 0 0 0   XYZ
    dof rx ry rz
    limits (-20.0 45.0)
           (-30.0 30.0)
           (-30.0 30.0)
  end
  begin
     id 12 
     name upperback
     direction 0.0107737 0.998635 0.0511027   
     length 1.8853   
     axis 0 0 0   XYZ
    dof rx ry rz
    limits (-20.0 45.0)
           (-30.0 30.0)
           (-30.0 30.0)
  end
  begin
     id 13 
     name thorax
     direction 0.011824 0.998136 0.0598754   
     length 1.88911   
     axis 0 0 0   XYZ
    dof rx ry rz
    limits (-20.0 45.0)
           (-30.0 30.0)
           (-30.0 30.0)
  end
  begin
     id 14 
     name lowerneck
     direction -0.0685355 0.990319 0.120714   
     length 1.91222   
     axis 0 0 0   XYZ
    dof rx ry rz
    limits (-20.0 45.0)
           (-30.0 30.0)
           (-30.0 30.0)
  end
  begin
     id 15 
     name upperneck
     direction 0.0886204 0.955665 -0.280805   
     length 1.92526   
     axis 0 0 0   XYZ
    dof rx ry rz
    limits (-20.0 45.0)
           (-30.0 30.0)
           (-30.0 30.0)
  end
  begin
     id 16
     name head
     direction 0.0233423 0.993502 -0.111393  
     length 1.96056  
     axis 0 0 0   XYZ
    dof rx ry rz
    limits (-20.0 45.0)
           (-30.0 30.0)
           (-30.0 30.0)
  end
  begin
     id 17 
     name lclavicle
     direction 0.941873 0.32922 0.0670041  
     length 3.31705  
     axis 0 0 0   XYZ
    dof ry rz
    limits (-20.0 10.0)
           (0.0 20.0)
  end
  begin
     id 18 
     name lhumerus
     direction 1 -4.4898e-011 3.38707e-028   
     length 5.29277   
     axis 180 -30 -90   XYZ
    dof rx ry rz
    limits (-60.0 90.0)
           (-90.0 90.0)
           (-90.0 90.0)
  end
  begin
     id 19
     name lradius
     direction 1 -4.48952e-011 1.63213e-028   
     length 2.85226   
     axis 180 -30 -90   XYZ
    dof rx
    limits (-10.0 170.0)
  end
  begin
     id 20
     name lwrist
     direction 1 -4.49001e-011 1.27856e-027   
     length 1.42613   
     axis -1.61767e-015 90 90   XYZ
    dof ry
    limits (-180.0 0.0)
 end
  begin
     id 21 
     name lhand
     direction 1 -4.48976e-011 2.55931e-027   
     length 0.602097   
     axis -1.63363e-015 90 90   XYZ
    dof rx rz
    limits (-90.0 90.0)
           (-45.0 45.0)
  end
  begin
     id 22 
     name lfingers
     direction 1 -4.48986e-011 5.11684e-027   
     length 0.485426   
     axis -3.26723e-015 90 90   XYZ
    dof rx
    limits (0.0 90.0)
  end
  begin
     id 23
     name lthumb
     direction 0.707107 -6.34915e-011 0.707107   
     length 0.696978   
     axis -90 45 -2.25915e-014   XYZ
    dof rx rz
    limits (-45.0 45.0)
           (-45.0 45.0)
  end
  begin
     id 24 
     name rclavicle
     direction -0.939974 0.327078 0.0973096   
     length 3.10337  
     axis 0 0 0   XYZ 
    dof ry rz
    limits (-10.0 20.0)
           (-20.0 0.0)
  end
  begin
     id 25 
     name rhumerus
     direction -1 -4.48975e-011 1.83745e-027  
     length 5.13304   
     axis 180 30 90   XYZ
    dof rx ry rz
    limits (-90.0 60.0)
           (-90.0 90.0)
           (-90.0 90.0)
  end
  begin
     id 26 
     name rradius
     direction -1 -4.48977e-011 7.1775e-029   
     length 2.74305   
     axis 180 30 90   XYZ
    dof rx
    limits (-10.0 170.0)
  end
  begin
     id 27 
     name rwrist
     direction -1 -4.48977e-011 1.27963e-027   
     length 1.37152   
     axis -1.61767e-015 -90 -90   XYZ
    dof ry
    limits (-180.0 0.0)
  end
  begin
     id 28
     name rhand
     direction -1 -4.4888e-011 2.56782e-027   
     length 0.767976   
     axis -1.63363e-015 -90 -90   XYZ
    dof rx rz
    limits (-90.0 90.0)
           (-45.0 45.0)
  end
  begin
     id 29
     name rfingers
     direction -1 -4.48947e-011 5.12384e-027   
     length 0.619162   
     axis -3.26723e-015 -90 -90   XYZ
    dof rx
    limits (0.0 90.0)
  end
  begin
     id 30
     name rthumb
     direction -0.707107 -6.34857e-011 0.707107   
     length 0.888997   
     axis -90 -45 2.25915e-014   XYZ
    dof rx rz
    limits (-45.0 45.0)
           (-45.0 45.0)
  end
:hierarchy
  begin
    root lhipjoint rhipjoint lowerback
    lhipjoint lfemur
    lfemur ltibia
    ltibia lfoot
    lfoot ltoes
    rhipjoint rfemur
    rfemur rtibia
    rtibia rfoot
    rfoot rtoes
    lowerback upperback
    upperback thorax
    thorax lowerneck lclavicle rclavicle
    lowerneck upperneck
    upperneck head
    lclavicle lhumerus
    lhumerus lradius
    lradius lwrist
    lwrist lhand lthumb
    lhand lfingers
    rclavicle rhumerus
    rhumerus rradius
    rradius rwrist
    rwrist rhand rthumb
    rhand rfingers
  end

#!OML:ASF F:\VICON\USERDATA\INSTALL\rory3\rory3.ASF
:FULLY-SPECIFIED
:DEGREES
411
root 2.06018 16.2376 -1.50761 11.6875 19.1062 10.5203
lowerback 12.7714 2.39166 7.03307
upperback 0.989326 4.95131 10.1411
thorax -6.49416 2.42159 6.01139
lowerneck -16.6271 -12.7356 -13.9029
upperneck 21.1385 -19.3944 19.9959
head 13.4934 -7.58717 6.43433
rclavicle -1.27222e-014 -5.725e-014
rhumerus 5.35748 -22.707 -30.1402
rradius 100.213
rwrist -3.42456
rhand 7.00041 16.6603
rfingers 7.12502
rthumb 32.2761 -10.4899
lclavicle -1.27222e-014 -5.725e-014
lhumerus 16.414 17.1105 -9.19534
lradius 91.3004
lwrist 16.4904
lhand 15.0131 21.1278
lfingers 7.12502
lthumb 39.864 46.3947
rfemur -27.0149 -15.112 -0.747276
rtibia 49.143
rfoot -27.7452 -7.42628
rtoes -28.2199
lfemur -31.4509 -11.9167 -34.9416
ltibia 42.6176
lfoot -14.6607 -14.9405
ltoes 9.39166
412
root 2.06764 16.2403 -1.50053 11.6544 18.828 10.3697
lowerback 12.7669 2.32388 7.13056
upperback 0.971845 4.87181 10.1033
thorax -6.49388 2.37778 5.92969
lowerneck -16.5905 -12.7166 -13.8993
upperneck 21.468 -19.4546 20.0333
head 13.6411 -7.59669 6.45584
rclavicle -1.35174e-014 -3.18055e-014
rhumerus 5.33615 -22.6876 -29.974
rradius 100.118
rwrist -3.30897
rhand 6.77549 16.6692
rfingers 7.12502
rthumb 32.062 -10.5243
lclavicle -1.35174e-014 -3.18055e-014
lhumerus 16.4581 16.9661 -8.98672
lradius 91.4588
lwrist 16.3643
lhand 14.7706 21.2207
lfingers 7.12502
lthumb 39.6357 46.5556
rfemur -27.1101 -15.0155 -0.617388
rtibia 49.0725
rfoot -27.6976 -7.25789
rtoes -28.3906
lfemur -31.4846 -11.7833 -34.8403
ltibia 42.617
lfoot -14.9449 -14.5418
ltoes 7.81981
413
root 2.07214 16.2409 -1.49555 11.6032 18.5207 10.1812
lowerback 12.7584 2.28032 7.20718
upperback 1.00705 4.81624 10.0944
thorax -6.44047 2.34804 5.88716
lowerneck -16.688 -12.7376 -13.9811
upperneck 21.7927 -19.5463 20.097
head 13.8381 -7.6161 6.48939
rclavicle 9.54166e-015 5.40694e-014
rhumerus 5.39413 -22.768 -29.7827
rradius 99.9718
rwrist -3.05305
rhand 6.32929 16.5863
rfingers 7.12502
rthumb 31.637 -10.6918
lclavicle 9.54166e-015 5.40694e-014
lhumerus 16.4907 16.9748 -8.6503
lradius 91.6365
lwrist 16.3486
lhand 14.6936 21.1756
lfingers 7.12502
lthumb 39.5632 46.5319
rfemur -27.2305 -14.8975 -0.431103
rtibia 48.9885
rfoot -27.6652 -7.15485
rtoes -28.4861
lfemur -31.5425 -11.7054 -34.6792
ltibia 42.6403
lfoot -15.1289 -14.1424
ltoes 6.5165
414
root 2.06956 16.2458 -1.48545 11.5245 18.1362 10.173
lowerback 12.8449 2.24859 6.9282
upperback 1.05005 4.73565 10.0511
thorax -6.45566 2.31529 6.0084
lowerneck -16.8091 -12.7159 -13.955
upperneck 22.2324 -19.587 20.0293
head 14.0449 -7.61191 6.46865
rclavicle 1.90833e-014 -1.01778e-013
rhumerus 5.37063 -22.7228 -29.5885
rradius 99.8397
rwrist -2.82666
rhand 5.98282 16.6499
rfingers 7.12502
rthumb 31.307 -10.6926
lclavicle 1.90833e-014 -1.01778e-013
lhumerus 16.5905 16.9881 -8.1982
lradius 91.7207
lwrist 16.2595
lhand 14.8066 21.184
lfingers 7.12502
lthumb 39.6696 46.5089
rfemur -27.2574 -14.6613 -0.442009
rtibia 48.9023
rfoot -27.6104 -7.10716
rtoes -28.701
lfemur -31.4679 -11.6218 -34.6827
ltibia 42.652
lfoot -15.3104 -13.793
ltoes 5.61653
415
root 2.06448 16.2524 -1.47164 11.4137 17.7103 10.066
lowerback 12.9001 2.23811 6.67999
upperback 1.0867 4.68324 10.0042
thorax -6.45851 2.29531 6.10437
lowerneck -16.8083 -12.6818 -13.8013
upperneck 22.5917 -19.6073 19.8626
head 14.1563 -7.60983 6.38972
rclavicle 3.18055e-014 -5.08889e-014
rhumerus 5.28749 -22.6712 -29.4224
rradius 99.7483
rwrist -2.71689
rhand 5.79477 16.8316
rfingers 7.12502
rthumb 31.1277 -10.5454
lclavicle 3.18055e-014 -5.08889e-014
lhumerus 16.9017 16.9055 -7.72184
lradius 91.6136
lwrist 16.1222
lhand 14.7215 21.1342
lfingers 7.12502
lthumb 39.5894 46.4828
rfemur -27.2936 -14.3627 -0.337718
rtibia 48.8041
rfoot -27.6041 -6.89988
rtoes -28.1868
lfemur -31.3953 -11.4713 -34.5816
ltibia 42.6798
lfoot -15.4924 -13.4892
ltoes 5.11799
